<?xml version="1.0" encoding="utf-8"?>
<!-- Generator: Adobe Illustrator 24.0.1, SVG Export Plug-In . SVG Version: 6.00 Build 0)  -->
<svg version="1.1" id="Layer_1" xmlns="http://www.w3.org/2000/svg" xmlns:xlink="http://www.w3.org/1999/xlink" x="0px" y="0px"
	 viewBox="0 0 960 720" style="enable-background:new 0 0 960 720;" xml:space="preserve">
<style type="text/css">
	.st0{fill:#211D70;}
	.st1{fill:#FFFFFF;}
</style>
<g>
	<g>
		<g>
			<path class="st0" d="M197.83,206.91v44.35c0,0,0.27,10.12,9.97,10.12h15.02v-8.1h-13.06c0,0-3.23,0.72-3.23-4.89
				c0-5.6,0-41.5,0-41.5L197.83,206.91z"/>
			<path class="st1" d="M206.53,206.45l-9.13,0.02v44.79c0,0.12,0.4,10.56,10.4,10.56h15.45v-8.98h-13.49
				c-0.12,0.02-0.89,0.17-1.59-0.43c-0.79-0.67-1.21-2.06-1.21-4.01v-41.95L206.53,206.45z M206.1,207.34c0,0.87,0,41.06,0,41.06
				c0,2.28,0.52,3.86,1.54,4.72c1.03,0.85,2.17,0.61,2.21,0.6c0,0,11.74,0.01,12.54,0.01c0,0.75,0,6.46,0,7.21
				c-0.81,0-14.59,0-14.59,0c-9.16,0-9.53-9.29-9.54-9.69c0,0,0-43.03,0-43.9C199,207.35,205.37,207.34,206.1,207.34z"/>
			<g>
				<path class="st0" d="M260.57,230.88v-23.97l-8.7-0.01c0,0,0,12.56,0,23.98h-17.63c-9.7,0-9.97,10.13-9.97,10.13v12.28h-0.01v8.1
					h26.33c9.71,0,9.97-10.12,9.97-10.12v-12.28l0,0V230.88L260.57,230.88z M247.87,253.29l-14.15,0.05v-9.74
					c0,0-0.91-4.76,3.71-4.76c4.62,0,14.01,0,14.01,0v10.32C251.44,249.15,251.72,253.29,247.87,253.29z"/>
				<path class="st1" d="M251.44,206.9c0,0,0,22.69,0,23.54c-0.82,0-17.2,0-17.2,0c-10,0-10.39,10.45-10.4,10.56v12.29l-0.01,8.54
					h26.76c10.01,0,10.4-10.45,10.4-10.55l0-44.81l-9.56-0.02V206.9z M224.69,253.29l0.01-12.28c0.01-0.38,0.38-9.68,9.54-9.68
					h18.06c0,0,0-23.13,0-23.98c0.74,0,7.1,0.01,7.84,0.01c0,0.85,0,43.91,0,43.91c-0.01,0.38-0.38,9.68-9.54,9.68
					c0,0-25.07,0-25.9,0C224.69,260.15,224.69,253.29,224.69,253.29z"/>
				<path class="st1" d="M251.44,238.39h-14.01c-1.48,0-2.6,0.46-3.33,1.37c-1.24,1.55-0.82,3.82-0.8,3.92l-0.01,10.1l14.58-0.05
					l0,0c1.23,0,2.21-0.39,2.91-1.16c1.22-1.35,1.1-3.36,1.09-3.44l0-10.73H251.44z M234.15,243.6c0-0.04-0.07-0.42-0.07-0.93
					c0-0.69,0.12-1.64,0.69-2.35c0.55-0.69,1.45-1.04,2.66-1.04c0,0,12.77,0,13.58,0c0,0.81,0,9.87,0,9.87c0,0.01,0,0.07,0,0.17
					c0,0.46-0.07,1.77-0.87,2.64c-0.53,0.58-1.29,0.88-2.28,0.88c0,0-12.91,0.04-13.72,0.05
					C234.15,252.08,234.15,243.6,234.15,243.6z"/>
			</g>
		</g>
		<path class="st0" d="M224.48,234.55v-14.77c0,0,5.86,2.22,9.09,0v9.69C233.57,229.46,227.87,229.15,224.48,234.55z"/>
		<path class="st1" d="M233.33,219.41c-3.01,2.06-8.65-0.03-8.71-0.05l-0.58-0.22l0,16.9l0.79-1.26c3.21-5.11,8.65-4.88,8.71-4.88
			l0.45,0.02v-10.98L233.33,219.41z M224.91,220.39c1.47,0.47,5.42,1.43,8.23,0.05c0,1.09,0,7.84,0,8.59
			c-1.3,0.03-5.27,0.49-8.23,4.23C224.91,231.2,224.91,221.41,224.91,220.39z"/>
		<path class="st0" d="M236.19,213.14c0,3.42-3.03,6.19-6.77,6.19c-3.75,0-6.79-2.77-6.79-6.19c0-3.42,3.04-6.2,6.79-6.2
			C233.16,206.94,236.19,209.72,236.19,213.14z"/>
		<path class="st1" d="M222.2,213.14c0,3.66,3.24,6.63,7.22,6.63c3.97,0,7.2-2.98,7.2-6.63c0-3.66-3.23-6.64-7.2-6.64
			C225.44,206.5,222.2,209.48,222.2,213.14z M223.06,213.14c0-3.17,2.85-5.75,6.35-5.75c3.5,0,6.34,2.58,6.34,5.75
			c0,3.17-2.84,5.75-6.34,5.75C225.91,218.88,223.06,216.31,223.06,213.14z"/>
	</g>
	<path class="st0" d="M167.49,237.62c0,35.08,27.68,63.62,61.7,63.62s61.71-28.54,61.71-63.62S263.22,174,229.2,174
		S167.49,202.54,167.49,237.62z M174.38,237.62c0-31.16,24.59-56.52,54.82-56.52c30.23,0,54.82,25.36,54.82,56.52
		c0,31.17-24.59,56.52-54.82,56.52C198.97,294.14,174.38,268.78,174.38,237.62z"/>
	<g>
		<path class="st0" d="M206.55,272.34v3.96c0,0.77,0.05,1.26,0.14,1.46c0.09,0.2,0.26,0.36,0.5,0.48c0.24,0.12,0.67,0.18,1.31,0.18
			v0.38h-7.08v-0.38c0.65,0,1.09-0.06,1.32-0.19c0.23-0.12,0.4-0.28,0.49-0.48c0.09-0.2,0.14-0.68,0.14-1.45v-9.2
			c0-0.77-0.05-1.26-0.14-1.46c-0.09-0.2-0.26-0.36-0.49-0.48c-0.24-0.12-0.68-0.18-1.32-0.18v-0.38h6.01c1.98,0,3.4,0.36,4.26,1.09
			c0.86,0.72,1.29,1.63,1.29,2.71c0,0.92-0.28,1.71-0.83,2.36c-0.55,0.65-1.32,1.1-2.29,1.34
			C209.22,272.26,208.11,272.34,206.55,272.34z M206.55,265.39v6.15c0.22,0.01,0.39,0.02,0.51,0.02c0.82,0,1.46-0.25,1.9-0.76
			c0.45-0.51,0.67-1.29,0.67-2.36c0-1.06-0.22-1.83-0.67-2.32c-0.45-0.49-1.11-0.73-2-0.73H206.55z"/>
		<path class="st0" d="M218.82,268.73c0.82,0,1.59,0.22,2.3,0.66s1.25,1.06,1.62,1.87c0.37,0.81,0.55,1.69,0.55,2.65
			c0,1.39-0.34,2.55-1.02,3.48c-0.83,1.13-1.97,1.69-3.42,1.69c-1.43,0-2.53-0.52-3.3-1.55c-0.77-1.03-1.16-2.22-1.16-3.58
			c0-1.4,0.39-2.62,1.18-3.66C216.36,269.25,217.44,268.73,218.82,268.73z M218.86,269.46c-0.35,0-0.65,0.13-0.9,0.4
			c-0.25,0.27-0.41,0.8-0.49,1.59c-0.08,0.79-0.12,1.89-0.12,3.3c0,0.75,0.05,1.44,0.14,2.09c0.08,0.5,0.23,0.87,0.48,1.13
			c0.25,0.26,0.52,0.39,0.84,0.39c0.31,0,0.56-0.09,0.77-0.26c0.27-0.24,0.44-0.57,0.53-0.99c0.14-0.66,0.2-2,0.2-4.01
			c0-1.18-0.07-2-0.19-2.44s-0.32-0.76-0.57-0.97C219.38,269.53,219.15,269.46,218.86,269.46z"/>
		<path class="st0" d="M234.06,279.08l-2.58-7.18l-2.52,7.18h-0.53l-2.54-7.08c-0.38-1.09-0.7-1.79-0.96-2.12
			c-0.17-0.22-0.43-0.39-0.77-0.48v-0.38h4.81v0.38c-0.33,0-0.55,0.05-0.67,0.15c-0.12,0.1-0.18,0.21-0.18,0.34
			c0,0.12,0.11,0.48,0.33,1.07l1.39,3.82l1.33-3.78l-0.1-0.28c-0.2-0.53-0.38-0.86-0.53-1.01c-0.15-0.14-0.39-0.24-0.71-0.3v-0.38
			h4.87v0.38c-0.38,0.02-0.62,0.07-0.72,0.16c-0.1,0.09-0.15,0.21-0.15,0.37c0,0.15,0.1,0.49,0.29,1.02l1.34,3.82l1.22-3.51
			c0.17-0.5,0.26-0.84,0.26-1.03c0-0.27-0.06-0.47-0.19-0.6c-0.13-0.12-0.38-0.2-0.75-0.23v-0.38h2.82v0.38
			c-0.31,0.04-0.56,0.15-0.74,0.34c-0.18,0.19-0.42,0.71-0.71,1.58l-2.7,7.77H234.06z"/>
		<path class="st0" d="M247.78,273.56h-5.29c0.06,1.29,0.4,2.31,1.02,3.06c0.48,0.58,1.05,0.86,1.71,0.86
			c0.41,0,0.79-0.11,1.13-0.35c0.34-0.23,0.7-0.65,1.08-1.25l0.35,0.28c-0.52,1.06-1.09,1.81-1.71,2.25
			c-0.63,0.44-1.35,0.66-2.18,0.66c-1.42,0-2.49-0.56-3.22-1.67c-0.59-0.9-0.88-2.01-0.88-3.34c0-1.63,0.43-2.93,1.29-3.89
			c0.86-0.96,1.87-1.45,3.03-1.45c0.97,0,1.8,0.41,2.52,1.22C247.34,270.76,247.72,271.96,247.78,273.56z M245.29,272.86
			c0-1.11-0.06-1.87-0.18-2.28c-0.12-0.41-0.31-0.73-0.57-0.94c-0.15-0.12-0.34-0.19-0.58-0.19c-0.36,0-0.66,0.18-0.88,0.53
			c-0.41,0.61-0.61,1.45-0.61,2.52v0.36H245.29z"/>
		<path class="st0" d="M252.86,269.01l0.01,2.23c0.63-1.01,1.18-1.68,1.65-2.01c0.47-0.33,0.93-0.5,1.37-0.5
			c0.38,0,0.68,0.12,0.91,0.36c0.23,0.24,0.34,0.58,0.34,1.02c0,0.47-0.11,0.83-0.33,1.09c-0.22,0.26-0.48,0.39-0.78,0.39
			c-0.36,0-0.68-0.12-0.94-0.35c-0.27-0.23-0.42-0.36-0.47-0.39c-0.07-0.04-0.15-0.06-0.24-0.06c-0.19,0-0.38,0.08-0.55,0.23
			c-0.27,0.24-0.48,0.57-0.62,1.01c-0.21,0.67-0.32,1.42-0.32,2.23l0.01,2.25l0,0.6c0,0.39,0.02,0.64,0.07,0.75
			c0.08,0.19,0.2,0.32,0.36,0.41c0.16,0.09,0.43,0.14,0.81,0.16v0.38h-5.12v-0.38c0.41-0.04,0.69-0.15,0.83-0.35
			c0.14-0.2,0.22-0.72,0.22-1.56v-5.42c0-0.56-0.03-0.92-0.08-1.08c-0.07-0.2-0.16-0.34-0.29-0.43c-0.13-0.09-0.35-0.15-0.67-0.19
			v-0.38H252.86z"/>
	</g>
</g>
</svg>
